# xmcd
#
# Track frame offsets: 
#        150
#        14215
#        25927
#        35731
#        45239
#        54403
#        65467
#        75922
#        86553
#        97382
#        109224
#        120523
#        133444
#        143309
#        153548
#        164510
#        174058
#        186131
#        197883
#        209637
#        223301
#        234385
#        244230
#        256191
#        267831
#        278511
#        288879
#        299602
#        310104
#        323386
#
# Disc length: 4482 seconds
#
# Revision: 1
# Processed by: cddbd v1.5.1PL0 Copyright (c) Steve Scherf et al.
# Submitted via: ExactAudioCopy v0.90b4
#
DISCID=b711801e
DTITLE=Waylon Jennings - The Journey - Destiny's Child - Vol. 6
DYEAR=1999
DGENRE=Country
TTITLE0=Gentle On My Mind (1968)
TTITLE1=The Crowd (1968)
TTITLE2=Sorrow (Breaks A Good Man Down) (1968)
TTITLE3=Wave Goodbye To Me (1968)
TTITLE4=Right Before My Eyes (1968)
TTITLE5=Looking At A Heart That Needs A Home (1968)
TTITLE6=Hangin' On (1968)
TTITLE7=Walk On Out Of My Mind (1967)
TTITLE8=Julie (1967)
TTITLE9=How Long Have You Been There (1968)
TTITLE10=I'm Doing This For You (1969)
TTITLE11=I've Been Needing Someone Like You (1969)
TTITLE12=Straighten My Mind (1968)
TTITLE13=Christina (1968)
TTITLE14=You Love The Ground I Walk On (1968)
TTITLE15=All Of Me Belongs To Me (& Anita Carter) (1970)
TTITLE16=No One's Gonna Miss Me (& Anita Carter) (1968)
TTITLE17=Rings Of Gold (& Anita Carter) (1969)
TTITLE18=How Much Rain Can One Man Stand (1968)
TTITLE19=My Ramona (1968)
TTITLE20=New York City, R.F.D. (1968)
TTITLE21=You'll Think Of Me (1968)
TTITLE22=I Got You (& Anita Carter) (1968)
TTITLE23=Such A Waste Of Love (1968)
TTITLE24=Only Daddy That'll Walk The Line (1968)
TTITLE25=Yours Love (1968)
TTITLE26=Kentucky Woman (1968)
TTITLE27=See You Around (On Your Way Down (1968)
TTITLE28=Too Far Gone (1968)
TTITLE29=Weakness In A Man (1968)
EXTD=
EXTT0=
EXTT1=
EXTT2=
EXTT3=
EXTT4=
EXTT5=
EXTT6=
EXTT7=
EXTT8=
EXTT9=
EXTT10=
EXTT11=
EXTT12=
EXTT13=
EXTT14=
EXTT15=
EXTT16=
EXTT17=
EXTT18=
EXTT19=
EXTT20=
EXTT21=
EXTT22=
EXTT23=
EXTT24=
EXTT25=
EXTT26=
EXTT27=
EXTT28=
EXTT29=
PLAYORDER=
